<svg id="a1f826a5-060e-4651-8562-c49fda7b6376" data-name="b408ebdb-e56c-4b01-81a9-86bdcbd81bfc" xmlns="http://www.w3.org/2000/svg" viewBox="0 0 437.29 500"><path d="M391.54,401.39C353,378.13,277.26,344.56,277.26,344.56l-3.77-24.09s-1.93-3.18-7.22,0l-38.38,26.9-12.81,32.72-13.82-32.72-38.38-26.9c-5.29-3.18-7.22,0-7.22,0l-3.77,24.09S76.18,378.13,37.61,401.39s-41.68,97.3-41.68,97.3H433.22S430.1,424.64,391.54,401.39Z" transform="translate(4.07 0.9)" fill="#ffeddc"/><path d="M213.64,380.73V496.82a1.87,1.87,0,0,0,3.74,0V380.73a1.87,1.87,0,0,0-3.74,0Z" transform="translate(4.07 0.9)" fill="#c4c4c4"/><path d="M110.1,362.46s81,51.5,81.63,136.23H-4s.76-61.75,35.25-98.22Z" transform="translate(4.07 0.9)" fill="#548da3"/><path d="M95.08,370.8l9.46,70.93,1.35,10.08a1.87,1.87,0,0,0,2.3,1.33l29.71-10.07-2.3-2.35-6.21,29.76c-.6,2.87-1.27,4.42,1,6.52l12.28,11.5,10.76,10.08c1.78,1.66,4.43-1,2.65-2.7l-24.27-22.73.48,1.86,7-33.27c.28-1.34-.87-2.84-2.3-2.35L107.2,449.45l2.3,1.34L100,379.87l-1.34-10.08c-.32-2.43-3.93-1.4-3.61,1Z" transform="translate(4.07 0.9)" fill="#416e7c"/><path d="M319.08,362.46s-81,51.5-81.63,136.23H433.22s-.76-61.75-35.25-98.22Z" transform="translate(4.07 0.9)" fill="#548da3"/><path d="M204.69,369.79,198,353.15c-.67-1.65-3.05-2-3.61,0l-8.06,28.27,3.13-.85-31.72-32.72-4.5-4.65c-1.7-1.75-4.34,1-2.65,2.71l31.72,32.72,4.5,4.65a1.88,1.88,0,0,0,3.13-.85L198,354.17h-3.61l6.72,16.63c.91,2.25,4.53,1.26,3.61-1Z" transform="translate(4.07 0.9)" fill="#c4c4c4"/><path d="M228.3,370.8,235,354.17h-3.61l5.48,28.26a1.88,1.88,0,0,0,3.13.85l33.87-32.63,4.93-4.74c1.75-1.69-.9-4.39-2.65-2.71L242.3,375.83l-4.93,4.74,3.13.85L235,353.15c-.4-2.06-3-1.54-3.61,0l-6.72,16.64c-.92,2.27,2.7,3.26,3.61,1Z" transform="translate(4.07 0.9)" fill="#c4c4c4"/><path d="M215.68,319.64c50.7-2.32,70.25-50.43,70.25-50.43s25.69-35,33.6-140.53C327,28.66,226.28,23.41,215.68,23.13v0h-.92v0c-10.6.28-111.34,5.53-103.85,105.55,7.91,105.56,33.61,140.53,33.61,140.53s19.54,48.11,70.24,50.43" transform="translate(4.07 0.9)" fill="#ffdebc"/><path d="M215.22,319.67" transform="translate(4.07 0.9)" fill="#ffdebc"/><ellipse cx="177.28" cy="170.09" rx="5.24" ry="9.94" fill="#4c3422"/><ellipse cx="261.3" cy="170.09" rx="5.24" ry="9.94" fill="#4c3422"/><path d="M138.83,150.29l-2.77-2.71s7.23-15.94,35.12-18.9,32.29,9.5,32.29,9.5-1.39,9.83-7.17,7c0,0-10.32-11.5-24.18-9.24S155.62,139.65,138.83,150.29Z" transform="translate(4.07 0.9)" fill="#4c3422"/><path d="M302,150.29l2.77-2.71s-7.22-15.94-35.12-18.9-32.29,9.5-32.29,9.5,1.39,9.83,7.17,7c0,0,10.32-11.5,24.18-9.24S285.18,139.65,302,150.29Z" transform="translate(4.07 0.9)" fill="#4c3422"/><path d="M207.93,162.45a121.79,121.79,0,0,0-5.58,20.73c-1.8,10-3.36,23,3,31.8,3.68,5.07,9.53,7,15.62,7,2.41,0,2.41-3.75,0-3.74-24,.1-15.81-34.08-11.61-48.16.66-2.23,1.36-4.46,2.17-6.64s-2.78-3.23-3.61-1Z" transform="translate(4.07 0.9)" fill="#fbc29a"/><path d="M215.68,315.75c74.77,0,98.09-136.63,98.09-136.63s1.11-108.69-97.4-111.24c-98.5,2.55-97,111.24-97,111.24S139,318.87,215.68,316.05Z" transform="translate(4.07 0.9)" fill="none"/><path d="M403.9,404.26s-1.37-13.76-15.84-25.4c0,0-79.05-58.7-79.56-62.77,0,0,19.8-38.28,26.8-105.58S366.34,14.71,225.08-.9H207.67C66.41,14.71,90.44,143.22,97.44,210.51s9.65,105.58,9.65,105.58c-.51,4.07-68.5,65-68.5,65-17.77,22.31-12.78,23.19-12.78,23.19l192-2.06ZM119.41,179.12s-1.54-108.69,97-111.24c98.51,2.55,97.4,111.24,97.4,111.24s-23.32,136.67-98.09,136.63v.3C139,318.87,119.41,179.12,119.41,179.12Z" transform="translate(4.07 0.9)" fill="#e2a037"/><path d="M119.77,177.16a166.8,166.8,0,0,1-4.72-27.26c-2-19.56-1.48-39.72,3.7-58.78a97.7,97.7,0,0,1,16.38-33.87c1.45-1.92-1.79-3.79-3.24-1.89-24,31.52-25,75.35-17.94,112.82.63,3.34,1.31,6.69,2.21,10a1.87,1.87,0,0,0,3.61-1Z" transform="translate(4.07 0.9)" fill="#ce9036"/><path d="M319.52,178.15a178,178,0,0,0,3.66-28.63c1.21-20.21-.2-40.93-6.1-60.38a106.49,106.49,0,0,0-16.92-33.78c-1.44-1.89-4.69,0-3.23,1.89,23.45,30.78,26.14,73.37,20.66,110.44-.47,3.17-1,6.34-1.68,9.47-.53,2.34,3.08,3.35,3.61,1Z" transform="translate(4.07 0.9)" fill="#ce9036"/><path d="M114.74,144c-2.63-7-3.46-14.91-3.92-22.3-1.33-21,2.4-42.07,8.77-62.07.73-2.3-2.88-3.29-3.61-1-6.46,20.29-10.25,41.73-8.91,63.07.49,7.7,1.32,16,4.06,23.3.84,2.23,4.46,1.26,3.61-1Z" transform="translate(4.07 0.9)" fill="#ce9036"/><path d="M242.53,18.82c6.16.57,14.15,3,20.52,5.45a103.73,103.73,0,0,1,41.28,29.18,116.06,116.06,0,0,1,20.16,34.79c.84,2.23,4.46,1.26,3.61-1-13-34.56-40.88-62.18-77.32-70.7a60.9,60.9,0,0,0-8.25-1.46c-2.4-.23-2.38,3.52,0,3.74Z" transform="translate(4.07 0.9)" fill="#ce9036"/><path d="M305.06,273.52c-6.42,16.17-16,33-28.09,45.89a55.08,55.08,0,0,1-16,12.22c-2.17,1.05-.27,4.28,1.89,3.23,11.28-5.43,19.87-15.45,26.93-25.53a181.79,181.79,0,0,0,16.09-28.48c.95-2.09,1.89-4.2,2.74-6.33s-2.73-3.21-3.61-1Z" transform="translate(4.07 0.9)" fill="#ce9036"/><path d="M131.71,274.14c7.54,21.16,24.42,40.64,44,51.42A86.78,86.78,0,0,0,207,335.5c2.39.3,2.36-3.45,0-3.74-30.78-3.85-55.48-25-68.87-52.3a62.41,62.41,0,0,1-2.78-6.32c-.8-2.25-4.42-1.28-3.6,1Z" transform="translate(4.07 0.9)" fill="#ce9036"/><path d="M116,267.72a89.88,89.88,0,0,0,6.28,20.71c6,14.36,14.93,27.63,26.93,37.64A86.78,86.78,0,0,0,178,341.85c2.29.75,3.28-2.86,1-3.6-29.62-9.66-50-35.15-57.9-64.68a63.93,63.93,0,0,1-1.53-6.85c-.36-2.37-4-1.36-3.61,1Z" transform="translate(4.07 0.9)" fill="#ce9036"/><path d="M308.5,316.09s-49.45,159.78-37.94,182.6h59.62s-7.21-36.3,7.22-86.33l24.86-52.86Z" transform="translate(4.07 0.9)" fill="#e2a037"/><path d="M333.29,340.59a741.33,741.33,0,0,0-43.89,84.12c-1,2.19,2.26,4.09,3.23,1.89a741.33,741.33,0,0,1,43.89-84.12c1.25-2.07-2-4-3.23-1.89Z" transform="translate(4.07 0.9)" fill="#ce9036"/><path d="M318.12,407.1c-9,29.57-14.38,59.31-15.25,90.18-.07,2.41,3.67,2.41,3.74,0,.86-30.55,6.21-59.92,15.12-89.19.71-2.31-2.9-3.29-3.61-1Z" transform="translate(4.07 0.9)" fill="#ce9036"/><path d="M358.56,358.72l-14.6,38-2.08,5.4c-.86,2.25,2.75,3.23,3.61,1l14.61-38,2.07-5.4c.87-2.25-2.75-3.22-3.61-1Z" transform="translate(4.07 0.9)" fill="#ce9036"/><path d="M314.13,322.82c-10.45,26-21.17,52-32.95,77.48-1,2.18,2.22,4.08,3.23,1.89,11.92-25.74,22.76-52.06,33.33-78.38.9-2.23-2.72-3.21-3.61-1Z" transform="translate(4.07 0.9)" fill="#ce9036"/><path d="M248.28,245.44H184.9s-5.15,17.58,31.69,17.88C253.43,263,248.28,245.44,248.28,245.44Z" transform="translate(4.07 0.9)" fill="#f9b392"/><path d="M248.34,242.15s-10.12,1.53-31.75,1.37c-21.64.16-31.76-1.37-31.76-1.37-3,14.51,31.76,14.6,31.76,14.6S251.33,256.66,248.34,242.15Z" transform="translate(4.07 0.9)" fill="#fff5ee"/><path d="M184.83,242.15s12.3-5.73,30.49-2.18c0,0,23.31-4.41,33,2.18C248.34,242.15,221.35,252.21,184.83,242.15Z" transform="translate(4.07 0.9)" fill="#f9b392"/><path d="M234,271c-.82,2.21-4.4,3.18-7,3.74a55.19,55.19,0,0,1-9.28,1.08c-.62,0-1.23.05-1.84.05-1.84,0-3.69-.12-5.51-.29a32.19,32.19,0,0,1-9.68-2.06,5.15,5.15,0,0,1-3-2.52c-.42-1.13-2.73-.65-2.31.49,1,2.68,4.62,4,7.84,4.82a56.48,56.48,0,0,0,10.51,1.32c.58,0,1.16,0,1.75.05l.11,0h.49l.12,0c1.92,0,3.85-.15,5.75-.34,3.69-.37,7.68-.94,10.86-2.53a6.64,6.64,0,0,0,3.47-3.32C236.68,270.34,234.37,269.86,234,271Z" transform="translate(4.07 0.9)" fill="#fbc29a"/></svg>